<?xml version="1.0" encoding="utf-8"?>
<!-- Generator: Adobe Illustrator 25.2.2, SVG Export Plug-In . SVG Version: 6.00 Build 0)  -->
<svg version="1.1" id="Layer_1" xmlns="http://www.w3.org/2000/svg" xmlns:xlink="http://www.w3.org/1999/xlink" x="0px" y="0px"
	 viewBox="0 0 54.48 54.48" style="enable-background:new 0 0 54.48 54.48;" xml:space="preserve">
<style type="text/css">
	.st0{fill-rule:evenodd;clip-rule:evenodd;fill:#E6E7E8;}
	.st1{fill-rule:evenodd;clip-rule:evenodd;fill:#606062;}
	.st2{fill-rule:evenodd;clip-rule:evenodd;fill:#FEFEFE;}
	.st3{fill-rule:evenodd;clip-rule:evenodd;fill:#FFFFFF;}
	.st4{fill-rule:evenodd;clip-rule:evenodd;fill:#201E1E;}
	.st5{fill-rule:evenodd;clip-rule:evenodd;fill:#4B4B4D;}
	.st6{fill-rule:evenodd;clip-rule:evenodd;fill:#A9ABAE;}
	.st7{fill-rule:evenodd;clip-rule:evenodd;fill:#BDBFC1;}
	.st8{fill-rule:evenodd;clip-rule:evenodd;fill:#464646;}
	.st9{fill-rule:evenodd;clip-rule:evenodd;fill:#96989A;}
	
		.st10{fill-rule:evenodd;clip-rule:evenodd;fill:none;stroke:#000000;stroke-width:0.5;stroke-linecap:round;stroke-linejoin:round;stroke-miterlimit:2.6131;}
</style>
<g>
	<path style="fill: #4285f4;" class="st5" d="M27.24,49l2.77-2.89c0.19-0.26,0.36-0.4,0.56-0.65c4.52-5.74,9.09-11.58,11.41-19.01
		c2.52-8.07-0.35-15.34-7.23-19.1c-6.62-3.63-15.41-1.82-20.08,4.25c-6.72,8.76-1.12,19.26,4.15,27.12
		c0.66,0.99,1.23,1.79,1.94,2.74c0.83,1.11,2.18,2.92,3.09,3.93l2.2,2.48C26.42,48.24,26.86,48.69,27.24,49L27.24,49z M26.24,9.65
		C32.81,9,38.16,13.89,38.71,19.81c0.61,6.54-4.49,11.73-10.47,12.2c-6.58,0.52-12.02-4.32-12.47-10.22
		C15.28,15.18,20.18,10.26,26.24,9.65z"/>
	<g>
		<path class="st5" d="M26.05,24.16c0.21-0.07,0.47,0.04,0.65,0.12c0.02,0.01,0.04,0.02,0.06,0.03l0.45,0.21
			c0.23,0.11,0.46,0.22,0.38,0.49c-0.03,0.1-0.1,0.13-0.18,0.15c-0.24,0.06-1.08,0.03-1.3-0.05c-0.1-0.04-0.16-0.08-0.21-0.15
			c-0.06-0.09-0.04-0.55-0.02-0.63C25.9,24.25,25.96,24.19,26.05,24.16L26.05,24.16z M32.08,24.16c0.1-0.02,0.23-0.02,0.33,0.01
			c0.26,0.1,0.14,0.77,0.11,0.82c-0.16,0.23-0.84,0.2-1.19,0.19c-0.21,0-0.45,0-0.5-0.2c-0.04-0.15,0.04-0.24,0.08-0.28
			c0.14-0.14,0.71-0.39,0.92-0.47c0.04-0.01,0.08-0.03,0.12-0.05L32.08,24.16L32.08,24.16z M26.19,22.77
			c0.01-0.13,0.1-0.37,0.13-0.49c0.09-0.32,0.27-0.68,0.42-0.98l0.06-0.1c0.02-0.03,0.02-0.03,0.04-0.05
			c0.01-0.01,0.03-0.03,0.04-0.04c0.2-0.17,0.92-0.24,1.13-0.25l0.3-0.02c0.05,0,0.11,0,0.14,0c0.05,0,0.1-0.01,0.15-0.01
			c0.2-0.01,0.41-0.01,0.61-0.01c0.48,0,0.88,0.01,1.35,0.06c0.03,0,0.1,0.01,0.14,0.01c0.14,0.02,0.39,0.06,0.53,0.1
			c0.01,0,0.09,0.03,0.12,0.04c0.28,0.09,0.27,0.16,0.38,0.39c0.06,0.14,0.13,0.27,0.19,0.42c0.08,0.19,0.28,0.73,0.3,0.92
			c-0.23,0.05-0.45,0.11-0.7,0.15C29.87,23.21,27.77,23.13,26.19,22.77L26.19,22.77z M33.81,23.27v-0.13c0,0,0-0.01-0.01-0.01
			l-0.08-0.23c0,0,0-0.01,0-0.01l-0.03-0.08c0,0,0-0.01,0-0.01c0,0,0-0.01,0-0.01c0,0-0.01-0.02-0.01-0.02
			c-0.03-0.09-0.07-0.17-0.15-0.24c-0.2-0.17-0.43-0.15-0.74-0.14l-0.02-0.08c-0.01-0.02-0.01-0.04-0.02-0.06
			c-0.01-0.03-0.02-0.04-0.03-0.07l-0.02-0.06c-0.01-0.04-0.04-0.08-0.05-0.13l-0.27-0.72c-0.09-0.23-0.18-0.51-0.36-0.65
			c-0.57-0.44-2.08-0.44-2.82-0.44c-0.75-0.01-2.56-0.02-2.97,0.66c-0.13,0.22-0.41,1-0.52,1.3c-0.03,0.07-0.08,0.19-0.09,0.27
			c-0.52,0.01-0.72-0.06-0.92,0.47c-0.06,0.15-0.16,0.39-0.04,0.54c0.06,0.08,0.1,0.1,0.24,0.1c0.11,0,0.23,0,0.34,0
			c-0.01,0.14-0.18,0.42-0.2,0.61c-0.04,0.28-0.02,2.05-0.02,2.42c0,0.32-0.05,0.53,0.15,0.68c0.09,0.07,0.17,0.06,0.33,0.06
			c0.14,0,0.83,0.01,0.91-0.01l0.08-0.02c0.04-0.02,0.09-0.07,0.11-0.09c0.09-0.1,0.09-0.15,0.09-0.31c0-0.13,0-0.27,0-0.4l5.04,0
			c0,0.14,0,0.28,0,0.42c0,0.28,0.11,0.42,0.4,0.42l0.81,0c0.5,0,0.46-0.22,0.46-0.76c0-0.38,0.02-2.12-0.02-2.42
			c-0.02-0.13-0.05-0.16-0.1-0.29c-0.03-0.08-0.09-0.22-0.11-0.3c0.1,0,0.35,0.01,0.44,0C33.78,23.47,33.78,23.34,33.81,23.27z"/>
		<path class="st5" d="M21.93,20.96c-0.02-0.14-0.01-0.54,0.05-0.63c0.1-0.16,0.35-0.13,0.55-0.07l0.5,0.21
			c0.11,0.06,0.15,0.08,0.23,0.11c0.14,0.07,0.35,0.16,0.4,0.3c0.04,0.09,0.01,0.21-0.04,0.27c-0.11,0.13-0.39,0.11-0.59,0.11
			C22.76,21.26,22,21.31,21.93,20.96L21.93,20.96z M22.26,18.85c0.03-0.27,0.3-0.98,0.45-1.25c0.02-0.04,0.03-0.06,0.05-0.11
			c0.02-0.04,0.03-0.06,0.05-0.1c0.02-0.04,0.03-0.07,0.05-0.11c0.22-0.33,1.36-0.36,1.78-0.38c0.36-0.02,1.15-0.01,1.53,0.01
			c0.1,0.01,0.2,0.01,0.3,0.02c0.24,0.02,0.63,0.06,0.87,0.14c0.32,0.11,0.33,0.12,0.45,0.39c0.2,0.45,0.42,0.87,0.51,1.36
			c-0.14,0.1-1.17,0.23-1.41,0.25c-1.36,0.12-2.95,0.12-4.29-0.16C22.52,18.91,22.3,18.85,22.26,18.85L22.26,18.85z M20.67,19.23
			v0.12c0.03,0.05,0.05,0.19,0.2,0.23c0.08,0.02,0.35,0.01,0.44,0c-0.02,0.15-0.18,0.4-0.2,0.6c-0.03,0.23-0.03,2.43-0.02,2.81
			c0,0.14,0.06,0.22,0.13,0.28c0.1,0.08,0.16,0.08,0.32,0.08h0.81c0.31,0,0.41-0.15,0.4-0.42c0-0.14,0-0.28,0-0.42l1.48,0l0.14-0.25
			l0.23-0.22c0.11-0.08,0.19-0.12,0.31-0.16c0.03-0.01,0.05-0.02,0.09-0.02l0.2-0.02c0.1-0.32,0.3-0.73,0.39-1.01
			c0.06-0.17,0.16-0.37,0.29-0.49c0.06-0.06,0.1-0.13,0.18-0.16l0.09-0.05c0.04-0.02,0.05-0.04,0.08-0.06
			c0.12-0.07,0.42-0.17,0.57-0.22l0.05-0.01c0,0,0.01,0,0.01,0c0.35-0.11,0.54-0.12,0.89-0.16l0.88-0.05c0.12,0,0.46,0.01,0.56-0.01
			c0.09-0.01-0.09-0.04,0.24-0.03c0.16,0,0.32,0.03,0.4-0.16c0.03-0.06,0.03-0.15,0.01-0.24c-0.02-0.09-0.1-0.33-0.15-0.42
			c-0.17-0.34-0.52-0.3-0.86-0.29l-0.14-0.39c-0.1-0.29-0.34-0.91-0.47-1.18c-0.04-0.08-0.09-0.15-0.16-0.2
			c-0.08-0.06-0.12-0.1-0.23-0.14c-0.91-0.39-2.89-0.35-4-0.26c-0.38,0.03-0.84,0.12-1.18,0.28c-0.16,0.07-0.32,0.16-0.41,0.32
			c-0.11,0.21-0.32,0.77-0.42,1.03c-0.04,0.11-0.15,0.47-0.2,0.53c-0.36,0.02-0.72-0.09-0.89,0.44
			C20.75,18.99,20.7,19.17,20.67,19.23z"/>
		<path class="st5" d="M32.23,17.97c0.25,0,0.33,0.11,0.34,0.35c0,0.2,0.05,0.47-0.12,0.57c-0.25,0.15-0.91,0.14-1.25,0.12
			c-0.23-0.01-0.41-0.08-0.37-0.33c0.02-0.12,0.1-0.16,0.16-0.2c0.03-0.02,0.06-0.05,0.1-0.07c0.05-0.03,0.08-0.04,0.12-0.06
			l0.72-0.32c0.05-0.02,0.09-0.03,0.13-0.04L32.23,17.97L32.23,17.97z M33.81,17.1v-0.12c-0.04-0.08-0.08-0.23-0.12-0.33
			c-0.04-0.12-0.07-0.18-0.16-0.28c-0.16-0.18-0.43-0.16-0.74-0.15c-0.05-0.19-0.15-0.43-0.23-0.63l-0.2-0.51c0,0,0-0.01,0-0.01
			c0,0-0.01-0.03-0.01-0.03l-0.15-0.37C31.95,14.04,30.22,14,29.57,14c-0.67,0-1.92-0.03-2.53,0.18c-0.34,0.12-0.68,0.18-0.84,0.52
			c-0.13,0.28-0.29,0.67-0.39,0.97l0.03,0.01c0.07,0.02,0.59,0.03,0.64,0.03l0.07-0.2c0.02-0.04,0.03-0.05,0.05-0.09
			c0.06-0.1,0.16-0.38,0.23-0.45c0.16-0.16,0.55-0.21,0.77-0.25l1.24-0.08c0.05,0,0.1,0,0.14,0c0.59-0.01,2.42,0.02,2.65,0.37
			c0.03,0.04,0.06,0.14,0.09,0.19c0.03,0.06,0.06,0.12,0.09,0.19c0.11,0.23,0.44,1,0.43,1.2c-0.92,0.26-2.32,0.36-3.34,0.31
			l0.38,0.99c0.12,0.02,0.24,0.03,0.33,0.06l0.13,0.05c0.41,0.18,0.56,0.59,0.68,1c0.08,0.26,0.03,0.4-0.04,0.64
			c0.3,0,0.61,0.05,0.9,0.1c0.2,0.03,0.41,0.09,0.6,0.16L32,19.96c0.02,0.01,0.02,0.01,0.04,0.02l0.21,0.11
			c0.46,0.27,0.47,0.68,0.66,1.02c0.1-0.02,0.16,0,0.26-0.03c0.06-0.02,0.11-0.05,0.15-0.11l0.05-0.12
			c0.02-0.05,0.02-0.06,0.02-0.12l0-2.52c0-0.38-0.11-0.52-0.22-0.84c-0.01-0.04,0,0-0.01-0.05C33.8,17.36,33.68,17.33,33.81,17.1z"
			/>
	</g>
</g>
<rect class="st10" width="54.48" height="54.48"/>
</svg>
