<?xml version="1.0" encoding="utf-8"?>
<!-- Generator: Adobe Illustrator 25.2.2, SVG Export Plug-In . SVG Version: 6.00 Build 0)  -->
<svg version="1.1" id="Layer_1" xmlns="http://www.w3.org/2000/svg" xmlns:xlink="http://www.w3.org/1999/xlink" x="0px" y="0px"
	 viewBox="0 0 54.48 54.48" style="enable-background:new 0 0 54.48 54.48;" xml:space="preserve">
<style type="text/css">
	.st0{fill-rule:evenodd;clip-rule:evenodd;fill:#E6E7E8;}
	.st1{fill-rule:evenodd;clip-rule:evenodd;fill:#606062;}
	.st2{fill-rule:evenodd;clip-rule:evenodd;fill:#FEFEFE;}
	.st3{fill-rule:evenodd;clip-rule:evenodd;fill:#FFFFFF;}
	.st4{fill-rule:evenodd;clip-rule:evenodd;fill:#201E1E;}
	.st5{fill:#C1C1C1;}
	.st6{fill:#494949;}
	.st7{fill-rule:evenodd;clip-rule:evenodd;fill:#C1C1C1;}
	.st8{fill-rule:evenodd;clip-rule:evenodd;fill:#494949;}
</style>
<g>
	<path class="st5" d="M50.9,54.48H3.59C1.61,54.48,0,52.88,0,50.9V3.59C0,1.61,1.61,0,3.59,0H50.9c1.98,0,3.59,1.61,3.59,3.59V50.9
		C54.48,52.88,52.88,54.48,50.9,54.48z"/>
	<path class="st6" d="M44.9,52.32H9.58c-4.1,0-7.42-3.32-7.42-7.42V9.58c0-4.1,3.32-7.42,7.42-7.42H44.9c4.1,0,7.42,3.32,7.42,7.42
		V44.9C52.32,49,49,52.32,44.9,52.32z"/>
</g>
<path class="st7" d="M15.08,9.44h12.84c0.02,0,0.03-0.01,0.03-0.03V8.65c0-0.02-0.01-0.03-0.03-0.03H15.08
	c-0.02,0-0.03,0.01-0.03,0.03v0.75C15.06,9.42,15.07,9.44,15.08,9.44z"/>
<path class="st7" d="M15.49,10.27h1.42c0.01,0,0.01,0,0.01-0.01v-0.3c0-0.01,0-0.01-0.01-0.01h-1.42c-0.01,0-0.01,0-0.01,0.01v0.3
	C15.48,10.26,15.48,10.27,15.49,10.27z"/>
<rect x="21.29" y="8.72" class="st7" width="2.66" height="36.3"/>
<path class="st7" d="M16.62,22.47h11.99c0.25,0,0.46-0.2,0.46-0.46V7.89c0-0.25-0.2-0.46-0.46-0.46H16.62
	c-0.25,0-0.46,0.2-0.46,0.46v14.13C16.17,22.27,16.37,22.47,16.62,22.47z"/>
<rect x="32.86" y="34.52" class="st7" width="1.82" height="10.49"/>
<path class="st7" d="M36.31,17.69c0.7,0.7,0.89,0.9,1.39,1.9c0.23,0.46,0.39,0.83,0.56,1.3c1.16,3.17,1.44,6.62,0.89,9.93
	l-0.32,1.49c-0.33,1.28-0.79,2.65-1.5,3.77c-0.3,0.46-0.75,1.08-1.24,1.42c-0.71,0.5-0.94,0.46-1.68,0.5c-0.07,0-0.12,0-0.19,0
	c-0.4,0-1.51,0.02-1.87-0.02c-0.44-0.05-0.54-0.1-0.88-0.44c-0.37-0.37-0.36-0.83-0.36-1.32l-0.02-1.97c0-0.24,0.02-0.43,0.02-0.67
	c0-0.06,0-0.1,0-0.15l0.04-0.5c0.05-0.57,0.57-1.05,1.17-1.1c0.48-0.04,0.97,0,1.45-0.02l0.36-0.02c0.07,0,0.12,0,0.19,0
	c0.53-0.02,0.54-0.04,0.68-0.49c0.36-1.14,0.4-1.81,0.5-2.92c0.03-0.32-0.02-1.88-0.04-2.2c-0.01-0.12-0.03-0.24-0.04-0.36
	c-0.02-0.3-0.08-0.81-0.15-1.11c-0.05-0.23-0.32-1.31-0.48-1.47c-0.09-0.09-1.86-0.08-1.99-0.08c-0.38-0.01-0.94-0.05-1.2-0.31
	c-0.29-0.29-0.44-0.41-0.49-0.88c-0.02-0.24-0.04-0.43-0.04-0.67l-0.01-2.67c0-0.12,0.02-0.2,0.02-0.33
	c0.01-0.6,0.36-1.15,1.02-1.27c0.51-0.1,2.45-0.07,2.92-0.02c0.4,0.04,0.8,0.21,1.19,0.6L36.31,17.69z"/>
<g>
	<path class="st8" d="M22.39,12.48c-1.01,0.13-1.79,0.92-1.83,1.99c-0.03,0.79,0.16,2.02-0.26,2.61c-0.15,0.21-0.3,0.29-0.63,0.33
		l0,0.3l5.9,0l0.01-0.3c-0.33-0.04-0.48-0.12-0.63-0.32c-0.32-0.44-0.26-1.1-0.26-1.63c0-0.32,0.01-0.65,0-0.97
		c-0.03-1.08-0.82-1.88-1.83-2.01l0-0.26l-0.46,0L22.39,12.48z"/>
	<path class="st8" d="M19.46,11.36c-1.78,0.46-2.52,2.68-1.46,4.13c0.11,0.15,0.31,0.48,0.53,0.41c0.11-0.03,0.18-0.19,0.1-0.31
		l-0.22-0.25c-0.13-0.17-0.24-0.35-0.34-0.59c-0.3-0.76-0.15-1.55,0.32-2.19c0.26-0.35,0.67-0.63,1.11-0.78
		c0.12-0.04,0.24-0.07,0.23-0.23C19.73,11.41,19.61,11.32,19.46,11.36z"/>
	<path class="st8" d="M25.63,11.37c-0.16,0.07-0.16,0.22-0.09,0.31c0.13,0.17,0.74,0.12,1.36,0.97c0.55,0.75,0.53,1.74,0.05,2.53
		c-0.15,0.25-0.39,0.4-0.38,0.56c0.01,0.13,0.14,0.24,0.29,0.17c0.1-0.05,0.35-0.37,0.43-0.5c0.12-0.19,0.22-0.39,0.3-0.63
		c0.18-0.53,0.16-1.11,0-1.64c-0.21-0.69-0.67-1.19-1.27-1.54C26.22,11.52,25.77,11.3,25.63,11.37z"/>
	<path class="st8" d="M25.64,12.37c-0.21,0.08-0.15,0.28-0.08,0.34c0.04,0.04,0.29,0.12,0.38,0.18c0.54,0.33,0.7,1.03,0.38,1.55
		c-0.14,0.22-0.2,0.21-0.23,0.32c-0.05,0.17,0.11,0.32,0.28,0.25c0.14-0.05,0.37-0.44,0.45-0.67c0.1-0.31,0.1-0.65,0-0.97
		C26.62,12.74,25.88,12.27,25.64,12.37z"/>
	<path class="st8" d="M19.47,12.37c-0.54,0.14-0.97,0.59-1.1,1.15c-0.07,0.32-0.03,0.66,0.09,0.94c0.08,0.19,0.31,0.64,0.56,0.55
		c0.14-0.05,0.16-0.25,0.06-0.36c-0.1-0.11-0.14-0.13-0.23-0.32c-0.14-0.3-0.14-0.65,0-0.94c0.31-0.68,0.82-0.52,0.88-0.79
		C19.78,12.44,19.64,12.33,19.47,12.37z"/>
	<path class="st8" d="M22.62,18.56c0.45,0,0.7-0.28,0.83-0.66c-0.2-0.02-1.42-0.02-1.67,0C21.91,18.28,22.16,18.56,22.62,18.56z"/>
</g>
<rect x="16.62" y="43.09" class="st7" width="22.45" height="0.86"/>
</svg>
