<?xml version="1.0" encoding="utf-8"?>
<!-- Generator: Adobe Illustrator 25.2.2, SVG Export Plug-In . SVG Version: 6.00 Build 0)  -->
<svg version="1.1" id="Layer_1" xmlns="http://www.w3.org/2000/svg" xmlns:xlink="http://www.w3.org/1999/xlink" x="0px" y="0px"
	 viewBox="0 0 54.48 54.48" style="enable-background:new 0 0 54.48 54.48;" xml:space="preserve">
<style type="text/css">
	.st0{fill-rule:evenodd;clip-rule:evenodd;fill:#E6E7E8;}
	.st1{fill-rule:evenodd;clip-rule:evenodd;fill:#606062;}
	.st2{fill-rule:evenodd;clip-rule:evenodd;fill:#FEFEFE;}
	.st3{fill-rule:evenodd;clip-rule:evenodd;fill:#FFFFFF;}
	.st4{fill-rule:evenodd;clip-rule:evenodd;fill:#201E1E;}
	.st5{fill-rule:evenodd;clip-rule:evenodd;fill:white;}
	.st6{fill-rule:evenodd;clip-rule:evenodd;fill:#A9ABAE;}
	.st7{fill-rule:evenodd;clip-rule:evenodd;fill:#BDBFC1;}
	.st8{fill-rule:evenodd;clip-rule:evenodd;fill:#464646;}
	.st9{fill-rule:evenodd;clip-rule:evenodd;fill:#96989A;}
		.st10{fill-rule:evenodd;clip-rule:evenodd;fill:none;stroke:#000000;stroke-width:0.5;stroke-linecap:round;stroke-linejoin:round;stroke-miterlimit:2.6131;}
</style>
<circle style="fill: #4285f4;" cx="27.33" cy="21.417" r="13.085"></circle>
<path class="st5" d="M22.12,12.9h5.41c0.01,0,0.01-0.01,0.01-0.01v-0.32c0-0.01-0.01-0.01-0.01-0.01h-5.41
	c-0.01,0-0.01,0.01-0.01,0.01v0.32C22.11,12.89,22.12,12.9,22.12,12.9z"/>
<polygon class="st5" points="22.29,13.25 22.89,13.25 22.89,13.24 22.89,13.11 22.89,13.11 22.29,13.11 22.29,13.11 22.29,13.24 "/>
<rect x="24.74" y="12.59" class="st5" width="1.12" height="15.28"/>
<path class="st5" d="M22.77,18.38h5.05c0.11,0,0.19-0.09,0.19-0.19v-5.95c0-0.11-0.09-0.19-0.19-0.19h-5.05
	c-0.11,0-0.19,0.09-0.19,0.19v5.95C22.58,18.3,22.67,18.38,22.77,18.38z"/>
<rect x="29.61" y="23.46" class="st5" width="0.77" height="4.42"/>
<path class="st5" d="M31.06,16.37c0.3,0.29,0.38,0.38,0.59,0.8c0.1,0.19,0.17,0.35,0.24,0.55c0.49,1.33,0.61,2.79,0.37,4.18
	l-0.13,0.63c-0.14,0.54-0.33,1.11-0.63,1.59c-0.12,0.2-0.32,0.45-0.52,0.6c-0.3,0.21-0.39,0.19-0.71,0.21c-0.03,0-0.05,0-0.08,0
	c-0.17,0-0.63,0.01-0.79-0.01c-0.18-0.02-0.23-0.04-0.37-0.19c-0.16-0.16-0.15-0.35-0.15-0.55l-0.01-0.83c0-0.1,0.01-0.18,0.01-0.28
	c0-0.02,0-0.04,0-0.06l0.02-0.21c0.02-0.24,0.24-0.44,0.49-0.46c0.2-0.02,0.41,0,0.61-0.01l0.15-0.01c0.03,0,0.05,0,0.08,0
	c0.22-0.01,0.23-0.02,0.29-0.21c0.15-0.48,0.17-0.76,0.21-1.23c0.01-0.13-0.01-0.79-0.02-0.92c0-0.05-0.01-0.1-0.02-0.15
	c-0.01-0.13-0.03-0.34-0.06-0.47c-0.02-0.1-0.14-0.55-0.2-0.62c-0.04-0.04-0.78-0.03-0.84-0.03c-0.16-0.01-0.4-0.02-0.51-0.13
	c-0.12-0.12-0.19-0.17-0.21-0.37c-0.01-0.1-0.02-0.18-0.02-0.28l0-1.13c0-0.05,0.01-0.08,0.01-0.14c0-0.25,0.15-0.48,0.43-0.54
	c0.22-0.04,1.03-0.03,1.23-0.01c0.17,0.02,0.34,0.09,0.5,0.25L31.06,16.37z"/>
<g>
	<path class="st7" d="M25.2,14.18c-0.42,0.06-0.75,0.39-0.77,0.84c-0.01,0.33,0.07,0.85-0.11,1.1c-0.06,0.09-0.13,0.12-0.27,0.14
		l0,0.12l2.48,0l0-0.12c-0.14-0.02-0.2-0.05-0.26-0.13c-0.13-0.19-0.11-0.46-0.11-0.69c0-0.13,0-0.27,0-0.41
		c-0.01-0.46-0.35-0.79-0.77-0.85l0-0.11l-0.19,0L25.2,14.18z"/>
	<path class="st7" d="M23.97,13.71c-0.75,0.19-1.06,1.13-0.61,1.74c0.05,0.06,0.13,0.2,0.22,0.17c0.05-0.01,0.08-0.08,0.04-0.13
		l-0.09-0.1c-0.06-0.07-0.1-0.15-0.14-0.25c-0.13-0.32-0.06-0.65,0.13-0.92c0.11-0.15,0.28-0.27,0.47-0.33
		c0.05-0.02,0.1-0.03,0.1-0.1C24.08,13.73,24.03,13.69,23.97,13.71z"/>
	<path class="st7" d="M26.57,13.71c-0.07,0.03-0.07,0.09-0.04,0.13c0.05,0.07,0.31,0.05,0.57,0.41c0.23,0.31,0.22,0.73,0.02,1.06
		c-0.06,0.1-0.16,0.17-0.16,0.23c0,0.06,0.06,0.1,0.12,0.07c0.04-0.02,0.15-0.16,0.18-0.21c0.05-0.08,0.09-0.16,0.13-0.27
		c0.07-0.22,0.07-0.47,0-0.69c-0.09-0.29-0.28-0.5-0.54-0.65C26.81,13.77,26.62,13.68,26.57,13.71z"/>
	<path class="st7" d="M26.57,14.13c-0.09,0.04-0.06,0.12-0.03,0.14c0.02,0.02,0.12,0.05,0.16,0.07c0.23,0.14,0.3,0.43,0.16,0.65
		c-0.06,0.09-0.09,0.09-0.1,0.14c-0.02,0.07,0.05,0.13,0.12,0.11c0.06-0.02,0.16-0.19,0.19-0.28c0.04-0.13,0.04-0.27,0-0.41
		C26.98,14.29,26.67,14.09,26.57,14.13z"/>
	<path class="st7" d="M23.97,14.13c-0.23,0.06-0.41,0.25-0.46,0.49c-0.03,0.14-0.01,0.28,0.04,0.4c0.03,0.08,0.13,0.27,0.24,0.23
		c0.06-0.02,0.07-0.11,0.03-0.15c-0.04-0.04-0.06-0.05-0.1-0.14c-0.06-0.13-0.06-0.27,0-0.4c0.13-0.29,0.35-0.22,0.37-0.33
		C24.1,14.16,24.04,14.11,23.97,14.13z"/>
	<path class="st7" d="M25.3,16.74c0.19,0,0.3-0.12,0.35-0.28c-0.08-0.01-0.6-0.01-0.7,0C25,16.62,25.1,16.74,25.3,16.74z"/>
</g>
<rect x="22.77" y="27.06" class="st5" width="9.45" height="0.36"/>
<path style="fill:#4285f4;" d="M27.24,49l2.77-2.89c0.19-0.26,0.36-0.4,0.56-0.65c4.52-5.74,9.09-11.58,11.41-19.01
	c2.52-8.07-0.35-15.34-7.23-19.1c-6.62-3.63-15.41-1.82-20.08,4.25c-6.72,8.76-1.12,19.26,4.15,27.12c0.66,0.99,1.23,1.79,1.94,2.74
	c0.83,1.11,2.18,2.92,3.09,3.93l2.2,2.48C26.42,48.24,26.86,48.69,27.24,49L27.24,49z M26.24,9.65C32.81,9,38.16,13.89,38.71,19.81
	c0.61,6.54-4.49,11.73-10.47,12.2c-6.58,0.52-12.02-4.32-12.47-10.22C15.28,15.18,20.18,10.26,26.24,9.65z"/>
</svg>
