<?xml version="1.0" encoding="utf-8"?>
<!-- Generator: Adobe Illustrator 25.2.2, SVG Export Plug-In . SVG Version: 6.00 Build 0)  -->
<svg version="1.1" id="Layer_1" xmlns="http://www.w3.org/2000/svg" xmlns:xlink="http://www.w3.org/1999/xlink" x="0px" y="0px"
	 viewBox="0 0 54.48 54.48" style="enable-background:new 0 0 54.48 54.48;" xml:space="preserve">
<style type="text/css">
	.st0{fill-rule:evenodd;clip-rule:evenodd;fill:#E6E7E8;}
	.st1{fill-rule:evenodd;clip-rule:evenodd;fill:#606062;}
	.st2{fill-rule:evenodd;clip-rule:evenodd;fill:#FEFEFE;}
	.st3{fill-rule:evenodd;clip-rule:evenodd;fill:#FFFFFF;}
	.st4{fill-rule:evenodd;clip-rule:evenodd;fill:#201E1E;}
	.st5{fill-rule:evenodd;clip-rule:evenodd;fill:white;}
	.st6{fill-rule:evenodd;clip-rule:evenodd;fill:#A9ABAE;}
	.st7{fill-rule:evenodd;clip-rule:evenodd;fill:#BDBFC1;}
	.st8{fill-rule:evenodd;clip-rule:evenodd;fill:#464646;}
	.st9{fill-rule:evenodd;clip-rule:evenodd;fill:#96989A;}
	
		.st10{fill-rule:evenodd;clip-rule:evenodd;fill:none;stroke:#000000;stroke-width:0.5;stroke-linecap:round;stroke-linejoin:round;stroke-miterlimit:2.6131;}
</style>
<circle style="fill: #4285f4;" cx="27.33" cy="21.417" r="13.085"></circle>

<g>
	<path class="st5" d="M26.61,23.66c0,0.44,0.17,0.82,0.54,1.01c0.33,0.17,0.7,0.13,0.98-0.09c0.12-0.09,0.28-0.29,0.32-0.44h0.43
		c-0.1,0.22-0.14,0.44-0.43,0.7c-0.72,0.63-1.73,0.34-2.1-0.44c-0.34-0.74-0.1-1.58,0.57-1.98c0.14-0.09,0.36-0.16,0.55-0.16
		c0.04,0,0.09,0,0.1,0c0.59,0.01,0.97,0.35,1.22,0.82h-0.47c-0.26-0.39-0.74-0.53-1.17-0.32C26.84,22.89,26.61,23.27,26.61,23.66
		L26.61,23.66z M25.13,22.22c0,0.2,0.19,0.42,0.42,0.42c0.54,0,0.54-0.83,0-0.83C25.32,21.8,25.13,22.01,25.13,22.22L25.13,22.22z
		 M22.94,25.88h8.33v-5.02h-8.33V25.88z"/>
	<path class="st5" d="M29.16,14.35c0,0.05-0.07,0.24-0.09,0.31c-0.05,0.17-0.28,0.82-0.29,0.94c0.08-0.01,0.26-0.11,0.34-0.14
		l0.86-0.39c0.07-0.03,0.12-0.06,0.18-0.08v-0.5h1.67v2.2h-9.17v-0.83h-0.56v0.83H21c-0.01,0.14-0.19,0.05-0.4,0.38
		c-0.12,0.18-0.16,0.35-0.13,0.61c0.04,0.39,0.3,0.53,0.52,0.66l0.33,0.07c0.1,0,0.17-0.03,0.3-0.03c1.12,0,11.24-0.02,11.43,0.01
		c0.39,0.07,0.72-0.11,0.9-0.41c0.21-0.35,0.11-0.88-0.23-1.12c-0.1-0.07-0.2-0.12-0.32-0.14c-0.12-0.02-0.8,0-0.99,0v-2.22h1.39
		v0.56c0.06-0.01,1.09-0.67,1.11-0.69c-0.03-0.05-0.72-0.46-0.83-0.53c-0.07-0.04-0.22-0.15-0.29-0.17v0.56h-3.61v-0.5l-0.34-0.15
		c-0.12-0.05-0.22-0.1-0.35-0.16c-0.11-0.05-0.63-0.3-0.7-0.31l0,0C28.78,13.22,29.16,14.29,29.16,14.35z"/>
	<path class="st5" d="M20.5,15.01c0.24,0,0.44-0.02,0.64-0.18c0.1-0.08,0.17-0.14,0.23-0.25c0.08-0.13,0.01-0.09,0.48-0.09
		c0,0.11-0.01,0.21,0.02,0.3c-0.09-0.03-0.21-0.02-0.31-0.02v0.83h1.67v-0.83c-0.22,0-1.15-0.03-1.28,0.02
		c0.04-0.05-0.01-0.02,0.08-0.05c0.13-0.04,0.22-0.05,0.37-0.15c0.03-0.02,0.09-0.07,0.12-0.09c0.08-0.03,0.69-0.01,0.82-0.01
		c0.01,0.06,0.08,0.15,0.12,0.2c0.6,0.68,1.69,0.22,1.69-0.58c0-0.31-0.07-0.53-0.26-0.73c-0.17-0.17-0.39-0.26-0.61-0.28h-0.17
		c-0.31,0.03-0.61,0.2-0.77,0.5c-0.04,0.08-0.1,0.21-0.1,0.33h-0.57c-0.04-0.17-0.14-0.29-0.26-0.38c-0.14-0.11-0.27-0.14-0.52-0.14
		c-0.02,0.09-0.03,0.4-0.03,0.52c-0.39,0-0.31,0.03-0.35-0.14c-0.05-0.21-0.19-0.38-0.35-0.52c-0.2-0.16-0.4-0.18-0.64-0.18h0
		c-0.28,0-0.49,0.15-0.63,0.29C19.27,13.99,19.74,15.01,20.5,15.01z"/>
	<rect x="26.47" y="26.7" class="st5" width="1.41" height="3.42"/>
	<rect x="26.55" y="18.94" class="st5" width="1.39" height="1.39"/>
	<path class="st5" d="M25.34,22.18v0.07c0,0.23,0.43,0.27,0.43-0.03C25.77,21.91,25.34,21.95,25.34,22.18z"/>
</g>
<path style="fill:#4285f4;" d="M27.24,49l2.77-2.89c0.19-0.26,0.36-0.4,0.56-0.65c4.52-5.74,9.09-11.58,11.41-19.01
	c2.52-8.07-0.35-15.34-7.23-19.1c-6.62-3.63-15.41-1.82-20.08,4.25c-6.72,8.76-1.12,19.26,4.15,27.12c0.66,0.99,1.23,1.79,1.94,2.74
	c0.83,1.11,2.18,2.92,3.09,3.93l2.2,2.48C26.42,48.24,26.86,48.69,27.24,49L27.24,49z M26.24,9.65C32.81,9,38.16,13.89,38.71,19.81
	c0.61,6.54-4.49,11.73-10.47,12.2c-6.58,0.52-12.02-4.32-12.47-10.22C15.28,15.18,20.18,10.26,26.24,9.65z"/>
</svg>
