<?xml version="1.0" encoding="utf-8"?>
<!-- Generator: Adobe Illustrator 25.2.2, SVG Export Plug-In . SVG Version: 6.00 Build 0)  -->
<svg version="1.1" id="Layer_1" xmlns="http://www.w3.org/2000/svg" xmlns:xlink="http://www.w3.org/1999/xlink" x="0px" y="0px"
	 viewBox="0 0 54.48 54.48" style="enable-background:new 0 0 54.48 54.48;" xml:space="preserve">
<style type="text/css">
	.st0{fill-rule:evenodd;clip-rule:evenodd;fill:#E6E7E8;}
	.st1{fill-rule:evenodd;clip-rule:evenodd;fill:#606062;}
	.st2{fill-rule:evenodd;clip-rule:evenodd;fill:#FEFEFE;}
	.st3{fill-rule:evenodd;clip-rule:evenodd;fill:#FFFFFF;}
	.st4{fill-rule:evenodd;clip-rule:evenodd;fill:#201E1E;}
	.st5{fill-rule:evenodd;clip-rule:evenodd;fill:white;}
	.st6{fill-rule:evenodd;clip-rule:evenodd;fill:#A9ABAE;}
	.st7{fill-rule:evenodd;clip-rule:evenodd;fill:#BDBFC1;}
	.st8{fill-rule:evenodd;clip-rule:evenodd;fill:#464646;}
	.st9{fill-rule:evenodd;clip-rule:evenodd;fill:#96989A;}
	
		.st10{fill-rule:evenodd;clip-rule:evenodd;fill:none;stroke:#000000;stroke-width:0.5;stroke-linecap:round;stroke-linejoin:round;stroke-miterlimit:2.6131;}
</style>
<circle style="fill: #4285f4;" cx="27.33" cy="21.417" r="13.085"></circle>
<g>
	<path class="st5" d="M26.36,23.33c0.14,0.33,0.47,0.99,0.58,1.17c0.5,0.85,0.57,1.24,0.32,2.3c-0.05,0.23-0.19,0.59-0.21,0.78
		c0.23-0.02,0.46-0.02,0.69-0.01c0.01-0.27,0.26-1.03,0.2-1.75c-0.05-0.59-0.35-0.99-0.59-1.36l-0.65-1.14H26.36z"/>
	<path class="st5" d="M28.98,26.68l-0.03,0.88c0.12,0.04,1.92,0.01,2.21,0.01c0.03-0.17-0.3-1.22-0.38-1.43
		c-0.14-0.35-0.29-0.59-0.5-0.88c-0.13-0.17-0.62-0.63-0.81-0.79l-0.22-0.23c-0.11-0.12-0.44-0.42-0.58-0.57l-0.33-0.34h-1.06
		c0.03,0.04,0.06,0.09,0.09,0.14l0.94,1.26C28.78,25.28,28.98,25.89,28.98,26.68z"/>
	<path class="st5" d="M23.68,27.56l2.21,0c0.08-0.1,0.31-0.71,0.39-0.94c0.36-1.05,0.31-1.3-0.1-2.26l-0.36-1.04h-1.07
		c0,0.05,0.01,0.12,0.01,0.21c0.01,0.23,0.02,0.49,0.05,0.72c0.07,0.52,0.18,0.85,0.01,1.37c-0.2,0.62-0.56,1.08-0.91,1.59
		L23.68,27.56z"/>
	<path class="st5" d="M32.42,27.58c0.09-0.03,0.59-0.03,0.68,0c0-0.08,0-0.05-0.03-0.12c-0.02-0.04-0.03-0.08-0.05-0.12
		c-0.03-0.08-0.06-0.14-0.1-0.22c-0.14-0.31-0.27-0.53-0.45-0.82c-0.12-0.2-0.38-0.56-0.54-0.73l-0.29-0.34
		c-0.11-0.12-0.38-0.36-0.49-0.46c-0.07-0.07-0.11-0.09-0.17-0.14l-1.41-1.12c-0.08-0.06-0.15-0.12-0.21-0.18h-0.33
		c0.08,0.09,0.16,0.17,0.22,0.21l1.62,1.38c0.16,0.16,0.4,0.45,0.55,0.64l0.19,0.26C31.93,26.31,32.26,26.95,32.42,27.58z"/>
	<path class="st5" d="M21.38,27.56l0.66,0c0.09-0.01,0.04,0.01,0.09-0.04l0.25-0.29c0.27-0.31,0.49-0.52,0.75-0.87
		c0.16-0.22,0.39-0.58,0.53-0.83c0.51-0.93,0.25-1.63,0.47-2.21h-0.34c-0.07,0.17-0.09,0.35-0.13,0.57
		c-0.07,0.39-0.18,0.98-0.33,1.29c-0.1,0.21-0.33,0.61-0.45,0.76l-0.11,0.15c-0.02,0.03-0.05,0.05-0.07,0.08l-0.12,0.14
		c-0.04,0.05-0.08,0.1-0.13,0.15l-0.93,0.97C21.46,27.48,21.39,27.51,21.38,27.56z"/>
	<rect x="21.77" y="15.23" class="st5" width="0.39" height="10.42"/>
	<rect x="32.3" y="15.23" class="st5" width="0.39" height="10.42"/>
	<rect x="21.77" y="14.84" class="st5" width="10.92" height="0.39"/>
	<rect x="24.69" y="14.09" class="st5" width="5.08" height="1.88"/>
</g>
<path style="fill:#4285f4;" d="M27.24,49l2.77-2.89c0.19-0.26,0.36-0.4,0.56-0.65c4.52-5.74,9.09-11.58,11.41-19.01
	c2.52-8.07-0.35-15.34-7.23-19.1c-6.62-3.63-15.41-1.82-20.08,4.25c-6.72,8.76-1.12,19.26,4.15,27.12c0.66,0.99,1.23,1.79,1.94,2.74
	c0.83,1.11,2.18,2.92,3.09,3.93l2.2,2.48C26.42,48.24,26.86,48.69,27.24,49L27.24,49z M26.24,9.65C32.81,9,38.16,13.89,38.71,19.81
	c0.61,6.54-4.49,11.73-10.47,12.2c-6.58,0.52-12.02-4.32-12.47-10.22C15.28,15.18,20.18,10.26,26.24,9.65z"/>
</svg>
