<?xml version="1.0" encoding="utf-8"?>
<!-- Generator: Adobe Illustrator 25.2.2, SVG Export Plug-In . SVG Version: 6.00 Build 0)  -->
<svg version="1.1" id="Layer_1" xmlns="http://www.w3.org/2000/svg" xmlns:xlink="http://www.w3.org/1999/xlink" x="0px" y="0px"
	 viewBox="0 0 54.48 54.48" style="enable-background:new 0 0 54.48 54.48;" xml:space="preserve">
<style type="text/css">
	.st0{fill-rule:evenodd;clip-rule:evenodd;fill:#E6E7E8;}
	.st1{fill-rule:evenodd;clip-rule:evenodd;fill:#606062;}
	.st2{fill-rule:evenodd;clip-rule:evenodd;fill:#FEFEFE;}
	.st3{fill-rule:evenodd;clip-rule:evenodd;fill:#FFFFFF;}
	.st4{fill-rule:evenodd;clip-rule:evenodd;fill:#201E1E;}
	.st5{fill-rule:evenodd;clip-rule:evenodd;fill:#4B4B4D;}
	.st6{fill-rule:evenodd;clip-rule:evenodd;fill:#A9ABAE;}
	.st7{fill-rule:evenodd;clip-rule:evenodd;fill:#BDBFC1;}
	.st8{fill-rule:evenodd;clip-rule:evenodd;fill:#464646;}
	.st9{fill-rule:evenodd;clip-rule:evenodd;fill:#96989A;}
	
		.st10{fill-rule:evenodd;clip-rule:evenodd;fill:none;stroke:#000000;stroke-width:0.5;stroke-linecap:round;stroke-linejoin:round;stroke-miterlimit:2.6131;}
</style>
<g>
	<path class="st5" d="M18.79,21.58c0.47,0.24,1.34,0.78,1.84,1.07l2.32,1.36c0.16,0.09,0.2,0.01,0.48-0.15l9.32-5.38
		c0.3-0.18,0.64-0.39,0.94-0.54l-1.43-2.51c-0.1-0.17-0.19-0.36-0.3-0.49c-0.23-0.26-0.68-0.49-1.15-0.3
		c-0.16,0.06-0.37,0.2-0.51,0.28l-3.51,2.03c-1.35,0.77-2.65,1.55-3.99,2.31l-3.49,2.02C19.16,21.35,18.89,21.46,18.79,21.58z"/>
	<path class="st5" d="M21.55,23.9c0.14,0.34,1.24,2.08,1.35,2.37l5.75-3.3c0.13,0.13,0.87,1.47,1.03,1.75
		c0.11,0.18,0.27,0.42,0.33,0.6l2.81,0c0.03,0.32,0.01,0.77,0.01,1.1c0,0.58,0.37,1.05,0.95,1.05l0.9,0l0-6.14
		c-0.7-0.03-1.31-0.09-1.63,0.36c-0.31,0.44-0.22,1.17-0.22,1.79l-1.75,0c-0.09-0.22-0.27-0.48-0.39-0.7
		c-0.12-0.21-0.33-0.52-0.41-0.73l3.27-1.9l-0.6-1.07l-5.69,3.27c-1.19,0.66-2.35,1.37-3.53,2.04c-0.13,0.07-0.23,0.13-0.35,0.2
		c-0.42,0.24-0.23,0.23-1.09-0.26C22.07,24.19,21.78,24,21.55,23.9z"/>
	<path class="st5" d="M18.72,23.51c0.26,0.52,1.03,1.76,1.37,2.38c0.05,0.09,0.4,0.73,0.49,0.8c0.13-0.06,0.99-0.55,1.04-0.62
		l-0.91-1.59c-0.22-0.39-0.75-1.26-0.91-1.59C19.65,22.95,18.79,23.43,18.72,23.51z"/>
</g>
<path class="st5" d="M27.24,49l2.77-2.89c0.19-0.26,0.36-0.4,0.56-0.65c4.52-5.74,9.09-11.58,11.41-19.01
	c2.52-8.07-0.35-15.34-7.23-19.1c-6.62-3.63-15.41-1.82-20.08,4.25c-6.72,8.76-1.12,19.26,4.15,27.12c0.66,0.99,1.23,1.79,1.94,2.74
	c0.83,1.11,2.18,2.92,3.09,3.93l2.2,2.48C26.42,48.24,26.86,48.69,27.24,49L27.24,49z M26.24,9.65C32.81,9,38.16,13.89,38.71,19.81
	c0.61,6.54-4.49,11.73-10.47,12.2c-6.58,0.52-12.02-4.32-12.47-10.22C15.28,15.18,20.18,10.26,26.24,9.65z"/>
</svg>
